<svg width="32" height="32" viewBox="0 0 32 32" fill="none" xmlns="http://www.w3.org/2000/svg">
<path fill-rule="evenodd" clip-rule="evenodd" d="M17.3383 4C17.5467 4 17.7549 4 17.9633 4C18.167 4.09159 18.3605 4.20878 18.5436 4.35156C19.9051 5.78125 21.2666 7.21094 22.628 8.64062C23.2938 9.59739 23.3087 10.5662 22.6727 11.5469C21.2814 13.0078 19.8902 14.4687 18.4989 15.9297C17.8538 16.4372 17.2661 16.3825 16.7357 15.7656C16.6133 15.5485 16.5389 15.3141 16.5125 15.0625C16.4902 14.5628 16.4827 14.0627 16.4902 13.5625C12.9305 13.0382 9.96199 14.1788 7.58469 16.9844C7.45473 17.148 7.33569 17.3198 7.22758 17.5C6.80572 17.8986 6.41885 17.8674 6.06696 17.4062C6.02202 17.2621 5.9997 17.1137 6 16.9609C6.63365 12.5816 8.85072 9.44102 12.6512 7.53906C13.8769 6.98319 15.1566 6.66287 16.4902 6.57812C16.4828 6.12473 16.4902 5.6716 16.5125 5.21875C16.5595 4.63369 16.8347 4.22744 17.3383 4Z" fill="#6F7379"/>
<path fill-rule="evenodd" clip-rule="evenodd" d="M14.66 28C14.4516 28 14.2434 28 14.035 28C13.8535 27.9124 13.675 27.8108 13.4994 27.6953C12.1081 26.2344 10.7169 24.7735 9.32561 23.3125C8.6638 22.2605 8.70844 21.2448 9.45953 20.2656C10.7317 18.9297 12.004 17.5938 13.2762 16.2578C13.4274 16.1147 13.591 15.9897 13.7672 15.8828C14.6159 15.5511 15.1739 15.8402 15.4412 16.75C15.4981 17.3108 15.5204 17.8733 15.5081 18.4375C18.6326 18.9263 21.3556 18.0591 23.6771 15.8359C24.0602 15.4338 24.4099 15.0041 24.7261 14.5469C25.1166 14.1156 25.5035 14.1156 25.8867 14.5469C25.9715 14.6816 26.0087 14.83 25.9983 14.9922C25.3869 19.3516 23.1996 22.4922 19.4364 24.4141C18.1847 24.9954 16.8753 25.3313 15.5081 25.4219C15.5297 26.0202 15.4925 26.6139 15.3965 27.2031C15.2606 27.588 15.0151 27.8536 14.66 28Z" fill="#6F7379"/>
</svg>
