<svg width="64" height="64" viewBox="0 0 64 64" fill="none" xmlns="http://www.w3.org/2000/svg">
<path fill-rule="evenodd" clip-rule="evenodd" d="M48.3155 0C48.5562 0 48.7968 0 49.0375 0C49.5607 2.27319 50.5473 4.3208 51.9974 6.14286C53.9545 7.93297 56.2405 9.14726 58.8556 9.78571C59.0481 9.97614 59.0481 10.1667 58.8556 10.3571C53.6446 11.5606 50.396 14.7273 49.1096 19.8571C48.9827 20.2637 48.742 20.359 48.3877 20.1429C47.7734 17.7364 46.6665 15.5936 45.0669 13.7143C43.2202 12.1337 41.1025 11.0386 38.7139 10.4286C38.2634 10.0947 38.3356 9.83286 38.9305 9.64286C42.485 8.8761 45.1561 6.94753 46.9439 3.85714C47.4739 2.59334 47.931 1.30763 48.3155 0Z" fill="#0085FF"/>
<path fill-rule="evenodd" clip-rule="evenodd" d="M24.9251 12C25.3392 11.9407 25.6521 12.0836 25.8636 12.4286C26.7727 15.2699 27.8795 18.0317 29.1845 20.7143C31.338 24.1983 34.2497 26.8889 37.9198 28.7857C40.352 29.7467 42.8065 30.6514 45.2834 31.5C45.5371 32.0331 45.3927 32.4141 44.8503 32.6429C42.41 33.4634 40.0037 34.3683 37.631 35.3571C32.8556 37.8924 29.5107 41.6781 27.5963 46.7143C27.0187 48.3333 26.4412 49.9524 25.8636 51.5714C25.5285 52.0596 25.1435 52.1071 24.7086 51.7143C23.7796 48.7661 22.6245 45.909 21.2433 43.1429C18.6616 39.0176 15.0761 36.089 10.4866 34.3571C8.85027 33.7857 7.2139 33.2143 5.57754 32.6429C4.80749 32.2143 4.80749 31.7857 5.57754 31.3571C8.34123 30.4774 11.0364 29.4299 13.6631 28.2143C17.6405 25.9456 20.5523 22.7313 22.3984 18.5714C23.2055 16.3573 24.0479 14.1669 24.9251 12Z" fill="#0085FF"/>
<path fill-rule="evenodd" clip-rule="evenodd" d="M48.4599 43.7143C48.6508 43.69 48.8193 43.7376 48.9653 43.8571C50.1816 49.013 53.3822 52.2273 58.5669 53.5C58.9778 53.6256 59.0741 53.8637 58.8556 54.2143C56.2405 54.8527 53.9545 56.067 51.9974 57.8571C50.5473 59.6791 49.5607 61.7269 49.0375 64C48.7968 64 48.5562 64 48.3155 64C47.79 61.7223 46.8034 59.6747 45.3556 57.8571C43.5693 56.08 41.4275 54.9133 38.9305 54.3571C38.3356 54.1671 38.2634 53.9053 38.7139 53.5714C41.1025 52.9614 43.2202 51.8663 45.0669 50.2857C45.6034 49.7074 46.0848 49.0883 46.5107 48.4286C47.2885 46.9047 47.9383 45.3333 48.4599 43.7143Z" fill="#0085FF"/>
</svg>
