<svg width="24" height="24" viewBox="0 0 24 24" fill="none" xmlns="http://www.w3.org/2000/svg">
<path d="M12.1488 3.00246C11.5582 2.98292 10.9695 3.07991 10.4163 3.28788C9.86319 3.49585 9.35642 3.81073 8.92497 4.21455C8.49352 4.61837 8.14583 5.10321 7.90175 5.6414C7.65768 6.17959 7.522 6.76059 7.50246 7.35121C7.48292 7.94184 7.57991 8.53053 7.78788 9.08367C7.99585 9.63682 8.31073 10.1436 8.71455 10.575C9.11837 11.0065 9.60321 11.3542 10.1414 11.5982C10.6796 11.8423 11.2606 11.978 11.8512 11.9975C12.4418 12.0171 13.0305 11.9201 13.5837 11.7121C14.1368 11.5042 14.6436 11.1893 15.075 10.7855C15.5065 10.3816 15.8542 9.89679 16.0982 9.3586C16.3423 8.82041 16.478 8.23941 16.4975 7.64879C16.5171 7.05816 16.4201 6.46947 16.2121 5.91633C16.0042 5.36319 15.6893 4.85642 15.2855 4.42497C14.8816 3.99352 14.3968 3.64583 13.8586 3.40175C13.3204 3.15768 12.7394 3.022 12.1488 3.00246Z" fill="white"/>
<path d="M12 14.25C10.333 14.25 8.70332 14.7432 7.31689 15.6675C5.93043 16.5918 4.84943 17.9058 4.21099 19.4436C4.06686 19.7908 4.10564 20.187 4.31435 20.4996C4.52306 20.8123 4.87411 21 5.25 21L18.75 21C19.1259 21 19.4769 20.8123 19.6857 20.4996C19.8944 20.187 19.9331 19.7908 19.789 19.4436C19.1506 17.9058 18.0696 16.5918 16.6831 15.6675C15.2967 14.7432 13.667 14.25 12 14.25Z" fill="white"/>
</svg>
