<svg width="24" height="24" viewBox="0 0 24 24" fill="none" xmlns="http://www.w3.org/2000/svg">
<path fill-rule="evenodd" clip-rule="evenodd" d="M13.5257 1.50527C15.2472 1.43717 16.6883 2.0292 17.849 3.28134C18.7466 4.50276 19.1205 5.87376 18.9708 7.39436C18.729 9.51289 17.9812 11.4292 16.7273 13.1432C14.9785 15.5777 12.7117 17.346 9.9268 18.4481C8.29093 19.0699 6.6239 19.179 4.92573 18.7753C3.15811 18.1761 2.05974 16.9687 1.63063 15.153C1.3981 13.8277 1.476 12.519 1.86433 11.2269C2.90697 8.14358 4.75317 5.65866 7.40289 3.7721C9.23113 2.43713 11.2721 1.68152 13.5257 1.50527ZM12.6377 6.50632C13.6701 6.58035 14.0985 7.12561 13.923 8.14218C13.6331 9.05854 13.3527 9.97775 13.0817 10.8998C12.9473 11.3964 12.7759 11.8794 12.5675 12.3487C12.4023 12.5599 12.192 12.7079 11.9366 12.7927C10.6562 13.1727 9.37869 13.5622 8.10398 13.9612C7.43281 14.1435 6.92648 13.9332 6.58496 13.3302C6.49326 13.1196 6.46209 12.9015 6.49148 12.6758C6.91223 11.1799 7.37962 9.69989 7.89365 8.23566C8.04859 8.03384 8.24331 7.88582 8.47789 7.79164C9.87403 7.37547 11.2606 6.94702 12.6377 6.50632Z" fill="url(#paint0_linear_12_68)"/>
<path fill-rule="evenodd" clip-rule="evenodd" d="M19.9289 5.38459C20.4102 5.84254 20.8854 6.30992 21.3545 6.78675C22.1329 7.83697 22.5146 9.02101 22.4996 10.3389C22.3824 12.3498 21.7825 14.2038 20.7001 15.9008C19.0656 18.4235 16.8922 20.3319 14.18 21.6263C12.6608 22.3209 11.0717 22.6013 9.41267 22.4676C8.4219 22.3536 7.53386 21.9953 6.74855 21.3926C6.25854 20.9571 5.79115 20.4975 5.34638 20.0138C7.35933 20.2626 9.29119 19.9588 11.142 19.1024C14.8736 17.3183 17.5767 14.5374 19.2512 10.7596C19.9825 9.02905 20.2085 7.23741 19.9289 5.38459Z" fill="url(#paint1_linear_12_68)"/>
<path fill-rule="evenodd" clip-rule="evenodd" d="M12.4507 7.90848C12.5198 7.89624 12.5821 7.9118 12.6377 7.95522C12.2669 9.13762 11.9008 10.3217 11.5393 11.5074C11.4368 11.5885 11.32 11.643 11.1887 11.671C10.0712 12.0281 8.94949 12.3553 7.82354 12.6525C8.22092 11.4369 8.59483 10.2139 8.94528 8.98348C10.1267 8.65191 11.2951 8.29356 12.4507 7.90848Z" fill="url(#paint2_linear_12_68)"/>
<defs>
<linearGradient id="paint0_linear_12_68" x1="1.5" y1="1.5" x2="23.4601" y2="2.55717" gradientUnits="userSpaceOnUse">
<stop stop-color="#FF9500"/>
<stop offset="1" stop-color="#FFF700"/>
</linearGradient>
<linearGradient id="paint1_linear_12_68" x1="1.5" y1="1.5" x2="23.4601" y2="2.55717" gradientUnits="userSpaceOnUse">
<stop stop-color="#FF9500"/>
<stop offset="1" stop-color="#FFF700"/>
</linearGradient>
<linearGradient id="paint2_linear_12_68" x1="1.5" y1="1.5" x2="23.4601" y2="2.55717" gradientUnits="userSpaceOnUse">
<stop stop-color="#FF9500"/>
<stop offset="1" stop-color="#FFF700"/>
</linearGradient>
</defs>
</svg>
