<svg width="16" height="16" viewBox="0 0 16 16" fill="none" xmlns="http://www.w3.org/2000/svg">
<path fill-rule="evenodd" clip-rule="evenodd" d="M9.01713 1.00351C10.1648 0.958116 11.1255 1.3528 11.8994 2.18756C12.4977 3.00184 12.747 3.91584 12.6472 4.92957C12.486 6.34192 11.9875 7.61945 11.1515 8.76215C9.98569 10.3851 8.47446 11.564 6.61786 12.2987C5.52729 12.7133 4.41593 12.786 3.28382 12.5168C2.1054 12.1174 1.37316 11.3125 1.08709 10.102C0.932069 9.21848 0.984002 8.34602 1.24289 7.48463C1.93798 5.42905 3.16878 3.77244 4.93526 2.51473C6.15409 1.62475 7.51472 1.12102 9.01713 1.00351ZM8.4251 4.33755C9.11341 4.3869 9.39902 4.75041 9.28198 5.42812C9.08873 6.03903 8.90178 6.65183 8.72112 7.26651C8.63153 7.59758 8.51727 7.91958 8.37836 8.23245C8.26819 8.37329 8.12797 8.47194 7.95771 8.52846C7.10414 8.78181 6.25246 9.04146 5.40265 9.30744C4.9552 9.42899 4.61766 9.28877 4.38998 8.88679C4.32884 8.74642 4.30806 8.601 4.32766 8.45056C4.60815 7.45328 4.91975 6.46659 5.26243 5.49044C5.36573 5.35589 5.49554 5.25721 5.65193 5.19442C6.58269 4.91698 7.50706 4.63135 8.4251 4.33755Z" fill="url(#paint0_linear_62_616)"/>
<path fill-rule="evenodd" clip-rule="evenodd" d="M13.286 3.58973C13.6068 3.89502 13.9236 4.20662 14.2363 4.5245C14.7553 5.22465 15.0097 6.01401 14.9997 6.8926C14.9216 8.23323 14.5217 9.46919 13.8001 10.6005C12.7104 12.2823 11.2615 13.5546 9.45336 14.4175C8.44056 14.8806 7.38114 15.0676 6.27511 14.9784C5.6146 14.9024 5.02257 14.6635 4.49903 14.2618C4.17236 13.9714 3.86077 13.665 3.56425 13.3426C4.90622 13.5084 6.19413 13.3059 7.42801 12.735C9.91576 11.5455 11.7178 9.69157 12.8341 7.17303C13.3217 6.01936 13.4723 4.82494 13.286 3.58973Z" fill="url(#paint1_linear_62_616)"/>
<path fill-rule="evenodd" clip-rule="evenodd" d="M8.30047 5.27232C8.34652 5.26416 8.38806 5.27453 8.4251 5.30348C8.17795 6.09175 7.93385 6.8811 7.69286 7.67158C7.62456 7.72564 7.54666 7.762 7.45917 7.78064C6.71415 8.01873 5.96632 8.23684 5.2157 8.43498C5.48061 7.62462 5.72989 6.80928 5.96352 5.98898C6.7511 5.76794 7.53008 5.52904 8.30047 5.27232Z" fill="url(#paint2_linear_62_616)"/>
<defs>
<linearGradient id="paint0_linear_62_616" x1="1" y1="1" x2="15.64" y2="1.70478" gradientUnits="userSpaceOnUse">
<stop stop-color="#FF9500"/>
<stop offset="1" stop-color="#FFF700"/>
</linearGradient>
<linearGradient id="paint1_linear_62_616" x1="1" y1="1" x2="15.64" y2="1.70478" gradientUnits="userSpaceOnUse">
<stop stop-color="#FF9500"/>
<stop offset="1" stop-color="#FFF700"/>
</linearGradient>
<linearGradient id="paint2_linear_62_616" x1="1" y1="1" x2="15.64" y2="1.70478" gradientUnits="userSpaceOnUse">
<stop stop-color="#FF9500"/>
<stop offset="1" stop-color="#FFF700"/>
</linearGradient>
</defs>
</svg>
